PathFileType	4	(X/Y/Z)	C:\Users\WrightLab\Desktop\Jo\P4V127.trc
DataRate	CameraRate	NumFrames	NumMarkers	Units	OrigDataRate	OrigDataStartFrame	OrigNumFrames
100.00	100.00	       16	19	mm	100.00	81	       642
Frame#	Time	Headset_Front			Headset_Back			Headset_Left			Headset_Right			Left_Shoulder			Right_Shoulder			Sternum			C7			Left Elbow			Right Elbow			Left Wrist			Right Wrist			Left ASIS			Right ASIS			S2			Left Knee			Right Knee			Left Ankle			Right Ankle			
		X1	Y1	Z1	X2	Y2	Z2	X3	Y3	Z3	X4	Y4	Z4	X5	Y5	Z5	X6	Y6	Z6	X7	Y7	Z7	X8	Y8	Z8	X9	Y9	Z9	X10	Y10	Z10	X11	Y11	Z11	X12	Y12	Z12	X13	Y13	Z13	X14	Y14	Z14	X15	Y15	Z15	X16	Y16	Z16	X17	Y17	Z17	X18	Y18	Z18	X19	Y19	Z19	

81	0.800																									164.57312	1146.71936	-1603.20374				131.32515	875.26929	-1449.85596	-374.62793	876.76508	-1427.66040	33.33981	1001.52057	-1494.79431							27.40025	507.26807	-1517.30896	-293.32773	517.20868	-1532.38159							
82	0.810																									163.42007	1147.57935	-1604.73279				128.62473	875.66522	-1450.98206	-375.84491	876.59521	-1427.99060	33.29630	1001.41473	-1495.18127							27.36238	507.16165	-1517.64526	-293.43378	517.00677	-1533.04492							
83	0.820																									162.69766	1146.98376	-1603.36584				126.56503	875.80591	-1451.12402	-378.34079	876.21997	-1429.53918	33.21415	1001.22137	-1495.91248							27.30611	506.99606	-1518.14380	-293.61884	516.67206	-1534.20667							
84	0.830																									161.73871	1145.80371	-1600.94153				124.91959	875.43927	-1450.64392	-380.93192	875.84442	-1430.98694	32.54856	1001.15454	-1494.43811							27.24548	506.83426	-1518.68335	-293.70108	516.53448	-1534.72559							
85	0.840																									161.35828	1145.83716	-1600.50415				122.19660	875.08051	-1450.21228	-382.59711	875.64966	-1432.05908	32.50620	1001.04779	-1494.81421							27.19714	506.68872	-1519.11133	-293.69757	516.60535	-1534.71863							
86	0.850																									161.01633	1145.87109	-1600.09387				119.88674	875.52332	-1451.30945	-384.10693	872.21277	-1444.26099	32.15593	1000.69830	-1493.96399							27.15221	506.59048	-1519.51392	-293.77051	516.44006	-1535.16870							
87	0.860																									160.68149	1145.90906	-1599.67151				117.97740	875.33984	-1450.63708	-386.93152	872.48547	-1441.07397	32.11271	1000.61835	-1494.34949							27.09938	506.42950	-1519.98132	-293.79120	516.42627	-1535.30408							
88	0.870																									160.30203	1145.96204	-1599.14734				116.07037	874.88910	-1449.33447	-388.69742	873.58850	-1441.38293	31.34090	1000.94147	-1492.18774							27.06121	506.32004	-1520.32007	-293.15329	515.27869	-1538.64917							
89	0.880																									160.02176	1144.78040	-1596.29114				114.36593	874.89929	-1448.61206	-390.70963	872.68744	-1445.55933	31.31458	1000.87213	-1492.42078							26.40803	506.44351	-1518.56653	-293.09882	515.37213	-1538.30566							
90	0.890																									159.11366	1144.89343	-1596.03369				112.80389	874.33978	-1447.12415	-391.83316	870.93884	-1451.88733	31.30508	1000.85956	-1492.50574							26.38633	506.40094	-1518.76135	-293.15973	515.24677	-1538.68494							
91	0.900																									158.73964	1144.96362	-1595.43652				111.27903	874.76556	-1447.08838	-394.47937	871.43646	-1447.67566	31.28532	1000.79785	-1492.68018							26.33320	506.23441	-1519.23022	-293.20453	515.13831	-1538.96021							
92	0.910																									158.38496	1145.02283	-1594.90491				109.18344	874.98444	-1446.31140	-395.64459	871.69604	-1448.74890	31.28989	1000.80865	-1492.63965							26.25817	505.99640	-1519.89221	-294.09311	515.88318	-1537.19983							
93	0.920																									157.57584	1143.94507	-1592.10596				108.12534	874.81744	-1444.93884	-397.81982	872.29205	-1449.65625	31.25411	1000.02863	-1492.48975							26.11392	505.55289	-1521.16663	-294.00504	516.05011	-1536.64893							
94	0.930																									156.76192	1144.87219	-1593.16443				106.97006	875.03522	-1443.56934	-398.89142	870.80005	-1455.69775	31.25009	1000.01843	-1492.52527							25.95803	505.07642	-1522.54419	-294.09131	515.88995	-1537.18945							
95	0.940																									156.48904	1144.93433	-1592.67957				106.31615	875.26123	-1442.11658	-399.53094	869.77716	-1459.27234	31.25794	1000.01086	-1492.45410							25.78543	504.55392	-1524.07019	-293.28500	514.96564	-1539.45959							
96	0.950																									156.21713	1145.02490	-1592.06396				104.68205	875.47437	-1440.38159	-400.64941	870.12848	-1458.36609	31.27175	1000.02905	-1492.33081							25.65344	504.15381	-1525.23694	-293.22232	515.11444	-1539.07385							
